<?xml version="1.0" encoding="UTF-8"?>
<svg width="155px" height="40px" viewBox="0 0 155 40" version="1.1" xmlns="http://www.w3.org/2000/svg" xmlns:xlink="http://www.w3.org/1999/xlink">
    <title>Group 334备份</title>
    <g id="页面-1" stroke="none" stroke-width="1" fill="none" fill-rule="evenodd">
        <g id="画板" transform="translate(-48.000000, -20.000000)" fill="#FFFFFF">
            <g id="Group-334备份" transform="translate(48.000000, 20.000000)">
                <path d="M135.224982,28.7500283 L138.623773,28.7500283 L138.623773,19.6150496 L141.329836,19.6150496 L141.329836,16.8250469 L138.578924,16.8250469 L138.578924,16.3525616 C138.578924,15.4525607 139.026198,15.04753 139.809229,15.04753 C140.390441,15.04753 140.860139,15.1600149 141.35226,15.3400151 L141.35226,12.5050426 C140.726199,12.3025576 140.010441,12.1675271 138.937107,12.1675271 C137.729227,12.1675271 136.812862,12.4825577 136.186195,13.1125584 C135.560134,13.742559 135.224982,14.7100145 135.224982,16.0375309 L135.224982,16.802562 L133.815889,16.802562 L133.815889,19.6150496 L135.224982,19.6150496 L135.224982,28.7500283 Z M78.7855321,28.7500283 L82.1843234,28.7500283 L82.1843234,12.3249818 L78.7855321,12.3249818 L78.7855321,28.7500283 Z M55.1801149,29.0200286 C58.199027,29.0200286 59.9879985,27.9400275 61.5982425,26.207541 L59.406604,23.9800236 C58.1766634,25.105055 57.0809047,25.8250557 55.2919332,25.8250557 C52.6084154,25.8250557 50.752353,23.5750535 50.752353,20.8750509 L50.752353,20.8300205 C50.752353,18.1300179 52.6531428,15.925046 55.2919332,15.925046 C56.8572681,15.925046 58.0872087,16.6000163 59.2947857,17.7025023 L61.4861212,15.1600149 C60.0327258,13.7200135 58.266118,12.7300125 55.3142969,12.7300125 C50.5063528,12.7300125 47.1520464,16.3975313 47.1520464,20.8750509 L47.1520464,20.9200206 C47.1520464,25.4425099 50.5734437,29.0200286 55.1801149,29.0200286 Z M69.6600686,29.0200892 C73.3946177,29.0200892 76.1673477,26.2076016 76.1673477,22.7425679 L76.1673477,22.6975981 C76.1673477,19.2325644 73.417042,16.4650465 69.7049171,16.4650465 C65.970368,16.4650465 63.197638,19.2775947 63.197638,22.7425679 L63.197638,22.7875982 C63.197638,26.2525713 65.9479437,29.0200892 69.6600686,29.0200892 Z M66.5515807,22.7425679 C66.5515807,24.5200848 67.8267335,26.0725711 69.7049171,26.0725711 C71.6503736,26.0725711 72.813405,24.5651151 72.813405,22.7875982 L72.813405,22.7425679 C72.813405,20.9651116 71.5388583,19.4125646 69.6600686,19.4125646 C67.7146121,19.4125646 66.5515807,20.9200812 66.5515807,22.6975981 L66.5515807,22.7425679 Z M88.9322088,28.7500283 L85.5334176,28.7500283 L85.5334176,12.3249818 L88.9322088,12.3249818 L88.9322088,28.7500283 Z M97.8049448,29.0200892 C99.9740379,29.0200892 101.584342,28.165058 102.702525,26.770087 L100.756463,25.0376004 C99.8176741,25.9150558 98.9904005,26.2750562 97.8497933,26.2750562 C96.3291858,26.2750562 95.2558514,25.4650465 94.9200935,23.912569 L103.261314,23.912569 L103.261314,23.9123266 L103.261314,23.9123266 L103.261314,23.912266 L103.261314,23.9122054 L103.261314,23.9121448 L103.261314,23.9120842 L103.261314,23.9119629 L103.261314,23.9118417 C103.283738,23.5971141 103.306162,23.2823866 103.306162,23.0125681 C103.306162,19.5925648 101.472221,16.4650465 97.4691869,16.4650465 C93.9806986,16.4650465 91.5437265,19.3000796 91.5437265,22.7425679 L91.5437265,22.7875982 C91.5437265,26.4776018 94.2043352,29.0200892 97.8049448,29.0200892 Z M97.469793,19.2100189 C96.0607007,19.2100189 95.1437301,20.2225654 94.875245,21.7750517 L99.9964621,21.7750517 C99.7952498,20.2450502 98.9007035,19.2100189 97.469793,19.2100189 Z M111.49708,29.0200892 C113.889809,29.0200892 115.231629,28.0976034 116.394054,26.8150567 L114.403749,24.790085 C113.576475,25.5776009 112.79405,26.0725711 111.653443,26.0725711 C109.797078,26.0725711 108.612228,24.5876 108.612228,22.7425679 L108.612228,22.6975981 C108.612228,20.9200812 109.819502,19.4125646 111.519504,19.4125646 C112.726778,19.4125646 113.487384,19.9300802 114.247385,20.740081 L116.327387,18.4900788 C115.209204,17.2300776 113.800112,16.4650465 111.541928,16.4650465 C107.874046,16.4650465 105.257679,19.3000796 105.257679,22.7425679 L105.257679,22.7875982 C105.257679,26.2300864 107.89647,29.0200892 111.49708,29.0200892 Z M125.345578,28.2550581 C124.62982,28.6825737 123.802546,28.952574 122.661939,28.952574 C120.582543,28.952574 119.173451,28.1200277 119.173451,25.3300249 L119.173451,19.6150496 L117.74254,19.6150496 L117.74254,16.6900164 L119.173451,16.6900164 L119.173451,13.6075286 L122.572848,13.6075286 L122.572848,16.6900164 L125.390427,16.6900164 L125.390427,19.6150496 L122.572848,19.6150496 L122.572848,24.7675395 C122.572848,25.5550555 122.908,25.9375407 123.668607,25.9375407 C124.294668,25.9375407 124.853456,25.7800254 125.345578,25.5100251 L125.345578,28.2550581 Z M127.963156,15.3625 L131.541342,15.3625 L131.541342,12.3249818 L127.963156,12.3249818 L127.963156,15.3625 Z M131.451645,28.7500283 L128.052853,28.7500283 L128.052853,16.6900164 L131.451645,16.6900164 L131.451645,28.7500283 Z M149.980148,29.0425135 C149.063177,31.4950613 148.07954,32.4175471 146.044386,32.4175471 C144.814688,32.4175471 143.897717,32.1025165 143.025595,31.5850614 L144.166203,29.1100287 C144.613476,29.3800289 145.172264,29.582514 145.619537,29.582514 C146.20075,29.582514 146.514084,29.4025138 146.804993,28.7950587 L142.108625,16.6900164 L145.709234,16.6900164 L148.437116,24.9025094 L151.053482,16.6900164 L154.586819,16.6900164 L149.980148,29.0425135 Z" id="形状"></path>
                <path d="M35.1047618,10.1729191 L17.5924416,0 L17.5924416,4.22868901 L31.4647583,12.2872848 L31.4643946,32.4853047 L35.1047618,30.5188785 L35.1047618,10.1729191 Z M11.7284358,3.05193634 L29.2406349,13.2249221 L29.2406349,33.6724574 L28.88118,33.8807 L25.6002676,35.652823 L25.6006313,15.3391666 L11.7284358,7.28061323 L11.7284358,3.05193634 Z M23.3764473,16.2768039 L5.86417547,6.10376359 L5.86417547,10.332495 L19.7364437,18.3910484 L19.73608,38.8204019 L20.5728081,38.3685226 L23.3764473,36.7447029 L23.3764473,16.2768039 Z M17.5121991,19.3286857 L0,9.15570599 L0,29.8617264 L15.7726216,39.0243415 L15.7726216,38.9897354 L17.5121991,40.0001 L17.5121991,32.2723348 L13.8718318,30.1576055 L13.8720743,33.6912453 L3.63985207,27.7457243 L3.63985207,15.4986819 L13.8721955,21.4429302 L13.8720743,24.5823272 L17.5121991,26.6969354 L17.5121991,19.3286857 Z" id="形状"></path>
            </g>
        </g>
    </g>
</svg>